<?xml version="1.0" encoding="UTF-8"?>
<svg xmlns="http://www.w3.org/2000/svg" viewBox="0 0 595.28 595.28">
  <defs>
    <style>
      .cls-1, .cls-2, .cls-3 {
        fill: #fff;
      }

      .cls-4 {
        font-family: Outfit-Black, Outfit;
        font-size: 23.01px;
        font-variation-settings: 'wght' 900;
        font-weight: 800;
        letter-spacing: .05em;
      }

      .cls-4, .cls-5 {
        fill: #231f20;
      }

      .cls-5 {
        stroke-linecap: round;
        stroke-linejoin: round;
        stroke-width: 1.11px;
      }

      .cls-5, .cls-6, .cls-2, .cls-3 {
        stroke: #000;
      }

      .cls-6 {
        fill: none;
      }

      .cls-6, .cls-2, .cls-3 {
        stroke-miterlimit: 10;
      }

      .cls-6, .cls-3 {
        stroke-width: 2.78px;
      }

      .cls-2 {
        stroke-width: 3.03px;
      }

      .cls-7 {
        fill: #253a7a;
      }

      .cls-8 {
        fill: #c13038;
      }
    </style>
  </defs>
  <g id="BLASON">
    <path id="base" class="cls-3" d="M502.65,71.54c-21.3-8.51-43.2-15.68-65.51-21.32-30.74-7.42-61.98-12.47-93.56-15.09-15.49-1.35-29.39-1.85-44.97-2.02h-1.35c-15.58.17-29.47.67-44.97,2.02-31.49,2.61-62.82,7.67-93.56,15.09-22.15,5.73-44.04,12.81-65.35,21.32-.43.19-.75.32-.97.39s-.37.28-.37.52c.15,8.94,2.66,161.46,4.62,238.18.51,23.26,4.8,46.35,12.55,68.27,9.01,24.95,20.97,48.71,35.7,70.79,15.41,22.76,34.02,43.24,55.33,60.6,8.34,7,17.09,13.4,26.27,19.22,14.4,8.68,29.39,16.27,44.88,22.76,5.14,2.19,9.6,4.21,13.64,5.65,4.17,1.58,8.5,2.92,12.83,4.01.09.02.18.02.27,0,4.33-1.01,8.67-2.35,12.83-4.01,4.04-1.35,8.51-3.46,13.64-5.65,15.49-6.41,30.48-13.99,44.88-22.76,9.18-5.82,17.94-12.22,26.27-19.22,21.3-17.45,39.91-37.84,55.33-60.6,14.74-22.08,26.69-45.85,35.7-70.79,7.75-21.91,12.04-45.01,12.55-68.27,1.96-76.66,4.47-229.01,4.62-238.16,0-.24-.15-.45-.38-.53-.34-.11-.65-.28-.96-.41h0Z"/>
  </g>
  <g id="DRAPEAU">
    <path id="bot" class="cls-8" d="M158.74,130.94c30.74-7.42,62.06-12.47,93.56-15.09,15.49-1.35,29.39-1.85,44.97-2.02h1.35c15.58.17,29.47.67,44.97,2.02,31.58,2.61,62.82,7.67,93.56,15.09,22.3,5.64,44.18,12.8,65.47,21.31.76-42.34,1.31-75.63,1.38-79.76,0-.24-.15-.45-.38-.53-.34-.11-.65-.28-.96-.41-21.3-8.51-43.2-15.68-65.51-21.32-30.74-7.42-61.98-12.47-93.56-15.09-15.49-1.35-29.39-1.85-44.97-2.02h-1.35c-15.58.17-29.47.67-44.97,2.02-31.49,2.61-62.82,7.67-93.56,15.09-22.15,5.73-44.04,12.81-65.35,21.32-.43.19-.75.32-.97.39-.23.08-.37.28-.37.52.07,4.04.62,37.37,1.38,79.78,21.29-8.51,43.17-15.58,65.31-21.31Z"/>
    <path id="mid" class="cls-1" d="M93.39,124.42c21.3-8.51,43.2-15.59,65.35-21.32,30.74-7.42,62.06-12.47,93.56-15.09,15.49-1.35,29.39-1.85,44.97-2.02h1.35c15.58.17,29.47.67,44.97,2.02,31.58,2.61,62.82,7.67,93.56,15.09,22.32,5.65,44.21,12.81,65.51,21.32.15.06.3.13.45.2.5-28.53.84-48.97.89-52.15,0-.24-.15-.45-.38-.53-.34-.11-.65-.28-.96-.41-21.3-8.51-43.2-15.68-65.51-21.32-30.74-7.42-61.98-12.47-93.56-15.09-15.49-1.35-29.39-1.85-44.97-2.02h-1.35c-15.58.17-29.47.67-44.97,2.02-31.49,2.61-62.82,7.67-93.56,15.09-22.15,5.73-44.04,12.81-65.35,21.32-.43.19-.75.32-.97.39-.23.08-.37.28-.37.52.05,3.11.39,23.57.89,52.16.14-.06.28-.12.45-.2Z"/>
    <path id="top" class="cls-7" d="M93.39,99.37c21.3-8.51,43.2-15.59,65.35-21.32,30.74-7.42,62.06-12.47,93.56-15.09,15.49-1.35,29.39-1.85,44.97-2.02h1.35c15.58.17,29.47.67,44.97,2.02,31.58,2.61,62.82,7.67,93.56,15.09,22.32,5.65,44.21,12.81,65.51,21.32.28.11.57.26.88.38.26-15.09.42-25.12.46-27.27,0-.24-.15-.45-.38-.53-.34-.11-.65-.28-.96-.41-21.3-8.51-43.2-15.68-65.51-21.32-30.74-7.42-61.98-12.47-93.56-15.09-15.49-1.35-29.39-1.85-44.97-2.02h-1.35c-15.58.17-29.47.67-44.97,2.02-31.49,2.61-62.82,7.67-93.56,15.09-22.15,5.73-44.04,12.81-65.35,21.32-.43.19-.75.32-.97.39-.23.08-.37.28-.37.52.03,2.1.2,12.15.46,27.28.22-.08.5-.19.88-.36Z"/>
    <path id="otln" class="cls-6" d="M158.74,130.94c30.74-7.42,62.06-12.47,93.56-15.09,15.49-1.35,29.39-1.85,44.97-2.02h1.35c15.58.17,29.47.67,44.97,2.02,31.58,2.61,62.82,7.67,93.56,15.09,22.3,5.64,44.18,12.8,65.47,21.31.76-42.34,1.31-75.63,1.38-79.76,0-.24-.15-.45-.38-.53-.34-.11-.65-.28-.96-.41-21.3-8.51-43.2-15.68-65.51-21.32-30.74-7.42-61.98-12.47-93.56-15.09-15.49-1.35-29.39-1.85-44.97-2.02h-1.35c-15.58.17-29.47.67-44.97,2.02-31.49,2.61-62.82,7.67-93.56,15.09-22.15,5.73-44.04,12.81-65.35,21.32-.43.19-.75.32-.97.39-.23.08-.37.28-.37.52.07,4.04.62,37.37,1.38,79.78,21.29-8.51,43.17-15.58,65.31-21.31Z"/>
  </g>
  <g id="CROIX">
    <g>
      <path class="cls-8" d="M409.95,161.02l11.99-4.89-4.89,11.99,5.33-3.55,5.33,3.55-4.89-11.99,11.99,4.89-3.55-5.33,3.55-5.33-11.99,4.89,4.89-11.99-5.33,3.55-5.33-3.55,4.89,11.99-11.99-4.89,3.55,5.33-3.55,5.33Z"/>
      <path class="cls-8" d="M161.21,161.02l11.99-4.89-4.89,11.99,5.33-3.55,5.33,3.55-4.89-11.99,11.99,4.89-3.55-5.33,3.55-5.33-11.99,4.89,4.89-11.99-5.33,3.55-5.33-3.55,4.89,11.99-11.99-4.89,3.55,5.33-3.55,5.33Z"/>
    </g>
  </g>
  <g id="NOM">
    <text id="sub" class="cls-4" transform="translate(200.86 164.04)"><tspan x="0" y="0">YANN BARTHÈS</tspan></text>
  </g>
  <g id="TITRE">
    <g>
      <path class="cls-5" d="M166.32,183.29c-.87.11-1.7.16-2.48.16h-23.25c-.75,0-1.57-.05-2.46-.16-.89-.11-1.7-.23-2.43-.37-.73-.14-1.27-.28-1.63-.43v11.01l.53-.05v-.37c0-2.14.61-3.82,1.82-5.05,1.21-1.23,2.9-1.86,5.08-1.9h5.24v30.89c-.04.93-.38,1.72-1.04,2.38s-1.45.99-2.38.99h-.69v.53h19.19v-.53h-.69c-.93,0-1.72-.33-2.38-.99-.66-.66-1.01-1.45-1.04-2.38v-30.89h5.24c2.17.04,3.87.67,5.08,1.9,1.21,1.23,1.82,2.91,1.82,5.05v.37l.53.05v-11.01c-.32.14-.85.29-1.6.43-.75.14-1.56.27-2.43.37Z"/>
      <path class="cls-5" d="M180.72,220.91h26.99l2.03-12.4h-.53c-.53,2.03-1.35,3.77-2.46,5.21-1.1,1.44-2.4,2.55-3.87,3.31-1.48.77-3.07,1.15-4.78,1.15h-6.57v-14.38h5.83c1.67.04,3.05.6,4.14,1.68,1.09,1.09,1.63,2.47,1.63,4.14v.27h.53v-14.86h-.53v.21c.04,1.68-.5,3.06-1.6,4.17s-2.49,1.67-4.17,1.71h-5.83v-14.91h8.13c1.88.14,3.39.73,4.48,1.84,1.21,1.23,1.82,2.91,1.82,5.05v.43h.53v-11.01c-.32.14-.85.29-1.6.43-.75.14-1.56.27-2.43.37-.87.11-1.7.16-2.49.16h-23.51v.53h.69c.93,0,1.72.33,2.38.99.66.66,1.01,1.45,1.04,2.38v29.61c-.04.93-.38,1.72-1.04,2.38-.66.66-1.45.99-2.38.99h-.69v.53h4.28Z"/>
      <path class="cls-5" d="M264.22,219.49c-.73-.59-1.18-1.42-1.36-2.49h-.02l-4.85-34.25h-.48l-16.46,24.54-17.96-24.54h-.48l-4.7,34.25h0c-.14,1.07-.59,1.9-1.34,2.49-.75.59-1.6.88-2.56.88h-.85v.53h11.76v-.48h-.85c-.57,0-1.06-.24-1.47-.72-.41-.48-.61-1.01-.61-1.58v-.23l1.86-14.93,13.91,19.22h.48c-.04-.96.13-1.92.51-2.86.37-.94.95-2.06,1.74-3.34l9.07-13.48,2.05,15.55v.07c0,.57-.21,1.1-.61,1.58-.41.48-.9.72-1.47.72h-.85v.48h18.97v-.53h-.85c-.96,0-1.81-.29-2.54-.88Z"/>
      <path class="cls-5" d="M290.59,220.38c-.93,0-1.72-.33-2.38-.99-.66-.66-1.01-1.45-1.04-2.38v-30.83h1.87c2.07,0,3.68.64,4.84,1.92,1.16,1.28,1.77,3.01,1.84,5.18.03.46.03.98-.03,1.55-.05.57-.15,1.12-.29,1.66-.29,1.21-.69,2.22-1.23,3.02-.53.8-1.1,1.42-1.68,1.84-.59.43-1.15.75-1.68.96-.53.21-1.14.37-1.82.48v.53c1.64,1.18,3.33,1.92,5.08,2.22,1.75.3,3.42.23,5.02-.21,1.6-.45,3.04-1.2,4.3-2.27,1.26-1.07,2.24-2.4,2.94-4.01.7-1.6.99-3.38.88-5.34-.11-1.85-.65-3.54-1.63-5.08-.98-1.53-2.52-2.77-4.62-3.71-2.1-.94-4.94-1.42-8.5-1.42h-20.36l.05.53h.64c.93,0,1.73.33,2.4.99.68.66,1.02,1.45,1.02,2.38v29.61c-.04.93-.38,1.72-1.04,2.38s-1.45.99-2.38.99h-.69v.53h19.19v-.53h-.69Z"/>
      <path class="cls-5" d="M317.9,220.91h26.99l2.03-12.4h-.53c-.53,2.03-1.35,3.77-2.46,5.21-1.11,1.44-2.4,2.55-3.88,3.31-1.48.77-3.07,1.15-4.78,1.15h-6.57v-30.78c.03-.93.38-1.72,1.04-2.38.66-.66,1.45-.99,2.38-.99h.69v-.53h-19.18v.53h.69c.93,0,1.72.33,2.38.99.66.66,1.01,1.45,1.04,2.38v29.61c-.04.93-.38,1.72-1.04,2.38-.66.66-1.45.99-2.38.99h-.69v.53h4.28Z"/>
      <path class="cls-5" d="M356.75,220.91h14.91v-.53h-.69c-.93,0-1.72-.33-2.38-.99-.66-.66-1.01-1.45-1.04-2.38v-29.61c.03-.93.38-1.72,1.04-2.38.66-.66,1.45-.99,2.38-.99h.69v-.53h-19.18v.53h.69c.93,0,1.72.33,2.38.99.66.66,1.01,1.45,1.04,2.38v29.61c-.04.93-.38,1.72-1.04,2.38-.66.66-1.45.99-2.38.99h-.69v.53h4.28Z"/>
      <path class="cls-5" d="M383.09,220.91h26.99l2.03-12.4h-.53c-.53,2.03-1.35,3.77-2.46,5.21-1.11,1.44-2.4,2.55-3.88,3.31-1.48.77-3.07,1.15-4.78,1.15h-6.57v-14.38h5.82c1.67.04,3.05.6,4.14,1.68,1.09,1.09,1.63,2.47,1.63,4.14v.27h.54v-14.86h-.54v.21c.04,1.68-.5,3.06-1.6,4.17-1.11,1.1-2.49,1.67-4.17,1.71h-5.82v-14.91h8.13c1.88.14,3.39.73,4.48,1.84,1.21,1.23,1.82,2.91,1.82,5.05v.43h.53v-11.01c-.32.14-.86.29-1.6.43-.75.14-1.56.27-2.43.37s-1.7.16-2.48.16h-23.51v.53h.69c.93,0,1.72.33,2.38.99.66.66,1.01,1.45,1.04,2.38v29.61c-.04.93-.38,1.72-1.04,2.38-.66.66-1.45.99-2.38.99h-.69v.53h4.28Z"/>
      <path class="cls-5" d="M460.29,220c-.62-.21-1.24-.6-1.84-1.18-.61-.57-1.32-1.41-2.14-2.51-.5-.68-1-1.41-1.5-2.19-.5-.78-.97-1.54-1.42-2.27-.45-.73-.81-1.34-1.1-1.84-.29-.5-.46-.8-.53-.91-.64-1.07-1.51-2.12-2.62-3.15-1.11-1.03-2.41-1.76-3.9-2.19,2.24-.36,3.98-1.08,5.21-2.16,1.23-1.09,2.09-2.35,2.59-3.79s.75-2.84.75-4.2c0-2.07-.43-3.76-1.28-5.08-.85-1.32-1.98-2.34-3.37-3.07-1.39-.73-2.92-1.24-4.6-1.52s-3.31-.43-4.92-.43h-20.9v.53h.7c.93,0,1.72.33,2.38.99.66.66,1.01,1.45,1.04,2.38v29.61c-.04.93-.38,1.72-1.04,2.38-.66.66-1.45.99-2.38.99h-.7v.53h19.19v-.53h-.64c-.93,0-1.73-.33-2.4-.99-.68-.66-1.02-1.45-1.02-2.38v-30.73h2.35c1.6,0,2.98.52,4.14,1.55,1.16,1.03,1.81,2.87,1.95,5.5.04.5.04.92,0,1.26-.04.34-.07.65-.11.94-.18,1.53-.54,2.78-1.07,3.74s-1.19,1.67-1.98,2.14c-.78.46-1.67.69-2.67.69h-.85v.53c.5.18,1,.5,1.5.96.5.46.93,1.34,1.28,2.62.14.46.27.95.37,1.47.11.52.22,1.05.35,1.6.12.55.28,1.13.45,1.74.18.61.39,1.23.64,1.87.25.64.57,1.28.96,1.92,1.1,1.85,2.38,3.21,3.82,4.06,1.44.85,3.07,1.41,4.89,1.66,1.82.25,3.79.37,5.93.37h6.68v-.53c-.85-.04-1.59-.16-2.22-.37Z"/>
      <path class="cls-5" d="M207.12,239.16c-3.19-1.48-7.01-2.22-11.46-2.22h-20.25l.05.53h.64c.93,0,1.73.33,2.4.99.68.66,1.02,1.45,1.02,2.38v29.61c-.04.93-.38,1.72-1.04,2.38-.66.66-1.45.99-2.38.99h-.69v.53h20.25c4.45,0,8.27-.74,11.46-2.22,3.19-1.48,5.63-3.62,7.32-6.41,1.69-2.8,2.54-6.15,2.54-10.07s-.85-7.28-2.54-10.07c-1.69-2.8-4.13-4.93-7.32-6.41ZM203.96,264.25c-.84,2.39-2.05,4.22-3.63,5.5-1.59,1.28-3.5,1.92-5.75,1.92h-4.11v-32.06h4.11c2.24,0,4.16.64,5.75,1.92,1.58,1.28,2.8,3.12,3.63,5.5.84,2.39,1.26,5.26,1.26,8.6s-.42,6.22-1.26,8.6Z"/>
      <path class="cls-5" d="M263.31,272.27c-.61-.57-1.32-1.41-2.14-2.51-.5-.68-1-1.41-1.5-2.19-.5-.78-.97-1.54-1.42-2.27-.45-.73-.81-1.34-1.1-1.84-.29-.5-.46-.8-.53-.91-.64-1.07-1.51-2.12-2.62-3.15-1.1-1.03-2.4-1.76-3.9-2.19,2.24-.36,3.98-1.08,5.21-2.16,1.23-1.09,2.09-2.35,2.59-3.79.5-1.44.75-2.84.75-4.2,0-2.07-.43-3.76-1.28-5.08-.85-1.32-1.98-2.34-3.37-3.07-1.39-.73-2.92-1.24-4.6-1.52-1.68-.29-3.31-.43-4.92-.43h-20.9v.53h.69c.93,0,1.72.33,2.38.99.66.66,1.01,1.45,1.04,2.38v29.61c-.04.93-.38,1.72-1.04,2.38s-1.45.99-2.38.99h-.69v.53h19.19v-.53h-.64c-.93,0-1.73-.33-2.4-.99-.68-.66-1.02-1.45-1.02-2.38v-30.73h2.35c1.6,0,2.98.52,4.14,1.55,1.16,1.03,1.81,2.87,1.95,5.5.04.5.04.92,0,1.26-.04.34-.07.65-.11.94-.18,1.53-.53,2.78-1.07,3.74-.53.96-1.19,1.67-1.98,2.14-.78.46-1.68.69-2.67.69h-.86v.53c.5.18,1,.5,1.5.96.5.46.93,1.34,1.28,2.62.14.46.27.95.37,1.47.11.52.22,1.05.35,1.6.12.55.28,1.13.45,1.74.18.61.39,1.23.64,1.87.25.64.57,1.28.96,1.92,1.1,1.85,2.38,3.21,3.82,4.06,1.44.85,3.07,1.41,4.89,1.66,1.82.25,3.79.37,5.93.37h6.68v-.53c-.86-.04-1.6-.16-2.22-.37-.62-.21-1.24-.6-1.84-1.18Z"/>
      <path class="cls-5" d="M284.63,236.94h-14.91v.53h.69c.93,0,1.72.33,2.38.99.66.66,1.01,1.45,1.04,2.38v29.61c-.04.93-.38,1.72-1.04,2.38-.66.66-1.45.99-2.38.99h-.69v.53h19.19v-.53h-.69c-.93,0-1.72-.33-2.38-.99-.66-.66-1.01-1.45-1.04-2.38v-29.61c.04-.93.38-1.72,1.04-2.38s1.45-.99,2.38-.99h.69v-.53h-4.27Z"/>
      <path class="cls-5" d="M323.16,237.48h.48c.71,0,1.35.29,1.92.88.57.59.61,1.42.11,2.49h.03l-7.98,18.32-7.65-18.32h0c-.36-1.07-.28-1.9.24-2.49s1.11-.88,1.79-.88h.48v-.53h-20.25v.53h.43c.82,0,1.67.26,2.54.77.87.52,1.59,1.38,2.16,2.59h.01l16.72,34.79h.48c.07-.46.23-1.07.48-1.82.25-.75.54-1.53.88-2.35.34-.82.67-1.58.99-2.27.32-.69.55-1.2.69-1.52l12.26-26.86c.57-1.19,1.28-2.05,2.15-2.56.87-.52,1.7-.77,2.49-.77h.48v-.53h-11.92v.53Z"/>
      <path class="cls-5" d="M368.85,267.16c-1.11,1.44-2.4,2.55-3.88,3.31-1.48.77-3.07,1.15-4.78,1.15h-6.57v-14.38h5.82c1.67.04,3.05.6,4.14,1.68,1.09,1.09,1.63,2.47,1.63,4.14v.27h.54v-14.86h-.54v.21c.04,1.68-.5,3.06-1.6,4.17-1.11,1.1-2.49,1.67-4.17,1.71h-5.82v-14.91h8.13c1.88.14,3.39.73,4.48,1.84,1.21,1.23,1.82,2.91,1.82,5.05v.43h.53v-11.01c-.32.14-.86.29-1.6.43-.75.14-1.56.27-2.43.37s-1.7.16-2.48.16h-23.51v.53h.69c.93,0,1.72.33,2.38.99.66.66,1.01,1.45,1.04,2.38v29.61c-.04.93-.38,1.72-1.04,2.38-.66.66-1.45.99-2.38.99h-.69v.53h31.26l2.03-12.4h-.53c-.53,2.03-1.35,3.77-2.46,5.21Z"/>
      <path class="cls-5" d="M418.18,272.27c-.61-.57-1.32-1.41-2.14-2.51-.5-.68-1-1.41-1.5-2.19-.5-.78-.97-1.54-1.42-2.27-.45-.73-.81-1.34-1.1-1.84-.29-.5-.46-.8-.53-.91-.64-1.07-1.51-2.12-2.62-3.15-1.11-1.03-2.41-1.76-3.9-2.19,2.24-.36,3.98-1.08,5.21-2.16,1.23-1.09,2.09-2.35,2.59-3.79s.75-2.84.75-4.2c0-2.07-.43-3.76-1.28-5.08-.85-1.32-1.98-2.34-3.37-3.07-1.39-.73-2.92-1.24-4.6-1.52s-3.31-.43-4.92-.43h-20.9v.53h.7c.93,0,1.72.33,2.38.99.66.66,1.01,1.45,1.04,2.38v29.61c-.04.93-.38,1.72-1.04,2.38-.66.66-1.45.99-2.38.99h-.7v.53h19.19v-.53h-.64c-.93,0-1.73-.33-2.4-.99-.68-.66-1.02-1.45-1.02-2.38v-30.73h2.35c1.6,0,2.98.52,4.14,1.55,1.16,1.03,1.81,2.87,1.95,5.5.04.5.04.92,0,1.26-.04.34-.07.65-.11.94-.18,1.53-.54,2.78-1.07,3.74s-1.19,1.67-1.98,2.14c-.78.46-1.67.69-2.67.69h-.85v.53c.5.18,1,.5,1.5.96.5.46.93,1.34,1.28,2.62.14.46.27.95.37,1.47.11.52.22,1.05.35,1.6.12.55.28,1.13.45,1.74.18.61.39,1.23.64,1.87.25.64.57,1.28.96,1.92,1.1,1.85,2.38,3.21,3.82,4.06,1.44.85,3.07,1.41,4.89,1.66,1.82.25,3.79.37,5.93.37h6.68v-.53c-.85-.04-1.59-.16-2.22-.37-.62-.21-1.24-.6-1.84-1.18Z"/>
    </g>
  </g>
  <g id="EPEES">
    <g>
      <path d="M255.48,304.06c-2.89.85-3.23-1.08-6.13-.23l-3.97-13.59c-.85-2.89,1.08-3.23.23-6.13-.6-2.06-2.75-3.24-4.81-2.63s-3.24,2.75-2.63,4.81c.85,2.89,2.65,2.14,3.49,5.04l3.97,13.59c-2.89.85-2.14,2.65-5.04,3.49l-5.58,1.63c-2.89.85-3.23-1.08-6.13-.23-2.06.6-3.24,2.75-2.63,4.81s2.75,3.24,4.81,2.63c2.62-.77,2.25-2.31,4.31-3.23,10.63-2.85,7.17-.7,9.61-.99.42,1.27,1.05,1.78,1.67,2.29l34.58,118.33c.15.51.4.99.74,1.39l5.71,6.85,1.12-8.85c.07-.53.02-1.06-.12-1.57l-34.58-118.33c.25-.76.51-1.53.18-2.83,2.22-1.06-1.85-1.02,8.64-4.34,2.22-.34,2.75,1.17,5.37.4,2.06-.6,3.24-2.75,2.63-4.81s-2.75-3.24-4.81-2.63c-2.89.85-2.14,2.65-5.04,3.49l-5.58,1.63Z"/>
      <path d="M284.76,404.27c-2.89.85-3.23-1.08-6.13-.23l-3.97-13.59c-.85-2.89,1.08-3.23.23-6.13-.6-2.06-2.75-3.24-4.81-2.63s-3.24,2.75-2.63,4.81c.85,2.89,2.65,2.14,3.49,5.04l3.97,13.59c-2.89.85-2.14,2.65-5.04,3.49l-5.58,1.63c-2.89.85-3.23-1.08-6.13-.23-2.06.6-3.24,2.75-2.63,4.81s2.75,3.24,4.81,2.63c2.62-.77,2.25-2.31,4.31-3.23,10.63-2.85,7.17-.7,9.61-.99.42,1.27,1.05,1.78,1.67,2.29l34.58,118.33c.15.51.4.99.74,1.39l5.71,6.85,1.12-8.85c.07-.53.02-1.06-.12-1.57l-34.58-118.33c.25-.76.51-1.53.18-2.83,2.22-1.06-1.85-1.02,8.64-4.34,2.22-.34,2.75,1.17,5.37.4,2.06-.6,3.24-2.75,2.63-4.81s-2.75-3.24-4.81-2.63c-2.89.85-2.14,2.65-5.04,3.49l-5.58,1.63Z"/>
    </g>
    <g>
      <path d="M340.43,304.06c2.89.85,3.23-1.08,6.13-.23l3.97-13.59c.85-2.89-1.08-3.23-.23-6.13.6-2.06,2.75-3.24,4.81-2.63s3.24,2.75,2.63,4.81c-.85,2.89-2.65,2.14-3.49,5.04l-3.97,13.59c2.89.85,2.14,2.65,5.04,3.49l5.58,1.63c2.89.85,3.23-1.08,6.13-.23,2.06.6,3.24,2.75,2.63,4.81s-2.75,3.24-4.81,2.63c-2.62-.77-2.25-2.31-4.31-3.23-10.63-2.85-7.17-.7-9.61-.99-.42,1.27-1.05,1.78-1.67,2.29l-34.58,118.33c-.15.51-.4.99-.74,1.39l-5.71,6.85-1.12-8.85c-.07-.53-.02-1.06.12-1.57l34.58-118.33c-.25-.76-.51-1.53-.18-2.83-2.22-1.06,1.85-1.02-8.64-4.34-2.22-.34-2.75,1.17-5.37.4-2.06-.6-3.24-2.75-2.63-4.81s2.75-3.24,4.81-2.63c2.89.85,2.14,2.65,5.04,3.49l5.58,1.63Z"/>
      <path d="M311.15,404.27c2.89.85,3.23-1.08,6.13-.23l3.97-13.59c.85-2.89-1.08-3.23-.23-6.13.6-2.06,2.75-3.24,4.81-2.63,2.06.6,3.24,2.75,2.63,4.81-.85,2.89-2.65,2.14-3.49,5.04l-3.97,13.59c2.89.85,2.14,2.65,5.04,3.49l5.58,1.63c2.89.85,3.23-1.08,6.13-.23,2.06.6,3.24,2.75,2.63,4.81s-2.75,3.24-4.81,2.63c-2.62-.77-2.25-2.31-4.31-3.23-10.63-2.85-7.17-.7-9.61-.99-.42,1.27-1.05,1.78-1.67,2.29l-34.58,118.33c-.15.51-.4.99-.74,1.39l-5.71,6.85-1.12-8.85c-.07-.53-.02-1.06.12-1.57l34.58-118.33c-.25-.76-.51-1.53-.18-2.83-2.22-1.06,1.85-1.02-8.64-4.34-2.22-.34-2.75,1.17-5.37.4-2.06-.6-3.24-2.75-2.63-4.81s2.75-3.24,4.81-2.63c2.89.85,2.14,2.65,5.04,3.49l5.58,1.63Z"/>
    </g>
  </g>
  <g id="AILLES">
    <g>
      <path d="M143.51,273.62c29.77,58.53,89,96.55,153.39,96.55s123.38-37.87,153.21-96.2c-7.51,31.85-23.99,60.8-47.63,83.09-29.02,27.37-66.53,42.45-105.64,42.45s-76.72-15.12-105.76-42.57c-23.66-22.36-40.13-51.39-47.58-83.32M137.25,252.46c8.65,84.19,76.81,149.75,159.61,149.75s150.75-65.36,159.57-149.37c-24.61,67.05-86.75,114.65-159.52,114.65s-135.14-47.78-159.66-115.02h0Z"/>
      <path d="M149.92,344.55c36.78,42.2,90.49,66.94,146.87,66.94s109.9-24.66,146.67-66.72c-4.48,10.01-9.98,19.54-16.45,28.49-9.74,13.48-21.46,25.32-34.83,35.21-27.78,20.55-60.78,31.41-95.44,31.41s-67.74-10.89-95.54-31.48c-13.38-9.91-25.1-21.79-34.84-35.29-6.47-8.98-11.97-18.54-16.44-28.57M141.2,329.25c21.13,65.75,82.78,113.34,155.55,113.34s134.27-47.47,155.47-113.1c-34.88,48.05-91.5,79.31-155.42,79.31s-120.73-31.36-155.6-79.55h0Z"/>
      <path d="M166.19,399.08c35.02,33.6,81.81,52.59,130.71,52.59s95.53-18.92,130.53-52.41c-11.13,20.8-27.07,38.65-46.74,52.19-24.72,17.01-53.71,26.01-83.83,26.01s-59.18-9.01-83.92-26.07c-19.7-13.58-35.64-31.47-46.75-52.31M156.88,385.44c22.24,55.51,76.53,94.71,139.98,94.71s117.61-39.12,139.9-94.52c-34.1,38.83-84.12,63.34-139.86,63.34s-105.92-24.59-140.02-63.53h0Z"/>
      <path d="M206.22,463.76c26.03,18.48,57.7,28.53,90.66,28.53s64.52-10.01,90.53-28.43c-8.39,11.57-19.24,21.47-31.93,29.04-17.51,10.45-37.78,15.97-58.63,15.97s-41.16-5.53-58.68-16c-12.71-7.59-23.56-17.51-31.95-29.11M196.22,452.57c18.27,34.9,56.47,58.91,100.63,58.91s82.27-23.97,100.57-58.8c-26.41,22.96-61.73,37-100.54,37s-74.24-14.08-100.66-37.11h0Z"/>
    </g>
  </g>
  <g id="BLASON-2" data-name="BLASON">
    <path id="base-2" data-name="base" class="cls-2" d="M389.87,331.63v59.39c0,54.64-37.48,127.99-91.85,143.09-54.37-15.1-91.85-88.46-91.85-143.09v-59.39c0-.28.23-.5.52-.5,45.51-.13,83.2-17.6,91.33-25.25,8.13,7.65,45.82,25.12,91.33,25.25.29,0,.52.22.52.5Z"/>
    <path id="cross" class="cls-8" d="M381.52,401.93c-5.33,5.61-9.51,13.25-11.97,22.09,0-.04-.02-.08-.03-.12-1.8-6.58-7.64-11.22-14.42-11.58-10.87-.58-27.14-1.28-43.86-1.39-2.44-.02-4.43,1.98-4.42,4.43.08,35.18,1.08,61.26,1.7,79.6.23,6.87,4.87,12.84,11.48,14.61,0,0,0,0,0,0-8.79,2.47-16.39,6.68-21.97,12.03-5.59-5.35-13.18-9.55-21.97-12.03,0,0,0,0,0,0,6.62-1.77,11.25-7.74,11.48-14.61.62-18.34,1.62-44.42,1.7-79.6,0-2.46-1.98-4.45-4.42-4.43-16.72.11-32.99.81-43.86,1.39-6.78.36-12.62,5-14.42,11.58,0,.04-.02.08-.03.12-2.46-8.84-6.64-16.47-11.97-22.09,5.33-5.61,9.51-13.24,11.97-22.09.04.14.07.27.11.41,1.83,6.57,7.65,11.21,14.42,11.58,10.87.58,27.09,1.28,43.76,1.39,2.45.02,4.45-1.99,4.42-4.46-.12-13.18-.72-34.42-1.26-43.57-.41-6.97-5.18-12.97-11.91-14.76,0,0,0,0,0,0,8.79-2.47,16.39-6.68,21.97-12.03,5.59,5.35,13.18,9.56,21.97,12.03,0,0,0,0,0,0-6.73,1.79-11.49,7.79-11.91,14.76-.54,9.15-1.14,30.39-1.26,43.57-.02,2.46,1.97,4.47,4.42,4.46,16.67-.11,32.9-.81,43.76-1.39,6.78-.36,12.59-5.01,14.42-11.58.04-.14.07-.27.11-.41,2.46,8.84,6.64,16.48,11.97,22.09Z"/>
    <g>
      <path id="cross-2" data-name="cross" class="cls-8" d="M268.77,441.66c-1.03.83-3.2.77-3.2.77h-6.98v-6.98s-.06-2.18.76-3.21c1.01-1.27,2.34-1.42,2.34-1.42h-10.85s1.33.15,2.34,1.42c.82,1.03.76,3.21.76,3.21v6.98h-6.98s-2.17.06-3.2-.77c-1.26-1.01-1.41-2.35-1.41-2.35v10.89s.15-1.34,1.41-2.35c1.03-.83,3.2-.77,3.2-.77h6.98v6.94s.06,2.18-.76,3.21c-1.01,1.27-2.34,1.42-2.34,1.42h10.85s-1.33-.15-2.34-1.42c-.82-1.03-.76-3.21-.76-3.21v-6.94h6.98s2.17-.06,3.2.77c1.26,1.01,1.41,2.35,1.41,2.35v-10.89s-.15,1.34-1.41,2.35Z"/>
      <path id="cross-3" data-name="cross" class="cls-8" d="M352.27,441.66c-1.03.83-3.2.77-3.2.77h-6.98v-6.98s-.06-2.18.76-3.21c1.01-1.27,2.34-1.42,2.34-1.42h-10.85s1.33.15,2.34,1.42c.82,1.03.76,3.21.76,3.21v6.98h-6.98s-2.17.06-3.2-.77c-1.26-1.01-1.41-2.35-1.41-2.35v10.89s.15-1.34,1.41-2.35c1.03-.83,3.2-.77,3.2-.77h6.98v6.94s.06,2.18-.76,3.21c-1.01,1.27-2.34,1.42-2.34,1.42h10.85s-1.33-.15-2.34-1.42c-.82-1.03-.76-3.21-.76-3.21v-6.94h6.98s2.17-.06,3.2.77c1.26,1.01,1.41,2.35,1.41,2.35v-10.89s-.15,1.34-1.41,2.35Z"/>
      <path id="cross-4" data-name="cross" class="cls-8" d="M352.27,358.16c-1.03.83-3.2.77-3.2.77h-6.98v-6.98s-.06-2.18.76-3.21c1.01-1.27,2.34-1.42,2.34-1.42h-10.85s1.33.15,2.34,1.42c.82,1.03.76,3.21.76,3.21v6.98h-6.98s-2.17.06-3.2-.77c-1.26-1.01-1.41-2.35-1.41-2.35v10.89s.15-1.34,1.41-2.35c1.03-.83,3.2-.77,3.2-.77h6.98v6.94s.06,2.18-.76,3.21c-1.01,1.27-2.34,1.42-2.34,1.42h10.85s-1.33-.15-2.34-1.42c-.82-1.03-.76-3.21-.76-3.21v-6.94h6.98s2.17-.06,3.2.77c1.26,1.01,1.41,2.35,1.41,2.35v-10.89s-.15,1.34-1.41,2.35Z"/>
      <path id="cross-5" data-name="cross" class="cls-8" d="M268.77,358.16c-1.03.83-3.2.77-3.2.77h-6.98v-6.98s-.06-2.18.76-3.21c1.01-1.27,2.34-1.42,2.34-1.42h-10.85s1.33.15,2.34,1.42c.82,1.03.76,3.21.76,3.21v6.98h-6.98s-2.17.06-3.2-.77c-1.26-1.01-1.41-2.35-1.41-2.35v10.89s.15-1.34,1.41-2.35c1.03-.83,3.2-.77,3.2-.77h6.98v6.94s.06,2.18-.76,3.21c-1.01,1.27-2.34,1.42-2.34,1.42h10.85s-1.33-.15-2.34-1.42c-.82-1.03-.76-3.21-.76-3.21v-6.94h6.98s2.17-.06,3.2.77c1.26,1.01,1.41,2.35,1.41,2.35v-10.89s-.15,1.34-1.41,2.35Z"/>
    </g>
  </g>
</svg>